<?xml version="1.0" encoding="iso-8859-1"?>
<!-- Generator: Adobe Illustrator 19.0.0, SVG Export Plug-In . SVG Version: 6.00 Build 0)  -->
<svg version="1.1" id="Capa_1" xmlns="http://www.w3.org/2000/svg" xmlns:xlink="http://www.w3.org/1999/xlink" x="0px" y="0px"
	 viewBox="0 0 512 512" style="enable-background:new 0 0 512 512;" xml:space="preserve">
<path style="fill:#FFD33F;" d="M34.133,119.467h443.733c14.14,0,25.6,11.46,25.6,25.6v221.867c0,14.14-11.46,25.6-25.6,25.6H34.133
	c-14.14,0-25.6-11.46-25.6-25.6V145.067C8.533,130.927,19.994,119.467,34.133,119.467z"/>
<rect x="162.133" y="153.6" style="fill:#91CECE;" width="187.733" height="204.8"/>
<path style="fill:#FFAC3E;" d="M349.867,358.4H162.133v-6.929c-48.956,14.148-99.123,23.731-149.854,28.621
	c4.591,7.697,12.885,12.425,21.854,12.442h443.733c14.14,0,25.6-11.46,25.6-25.6v-212.13
	c-46.532,44.459-98.082,83.354-153.6,115.908V358.4z"/>
<path style="fill:#83B2B7;" d="M349.867,358.4v-87.689c-58.982,34.62-122.044,61.747-187.733,80.759v6.929H349.867z"/>
<g>
	<rect x="221.867" y="315.733" style="fill:#383856;" width="59.733" height="17.067"/>
	<rect x="187.733" y="315.733" style="fill:#383856;" width="17.067" height="17.067"/>
</g>
<circle style="fill:#EA3836;" cx="392.533" cy="230.4" r="17.067"/>
<path style="fill:#D62327;" d="M399.531,214.869c3.908,8.533,0.145,18.62-8.388,22.528c-4.489,2.057-9.651,2.057-14.14,0
	c3.831,8.61,13.918,12.493,22.528,8.661c8.61-3.831,12.493-13.918,8.661-22.528C406.477,219.674,403.388,216.585,399.531,214.869z"
	/>
<circle style="fill:#EA3836;" cx="460.8" cy="230.4" r="17.067"/>
<path style="fill:#D62327;" d="M467.797,214.869c3.908,8.533,0.145,18.62-8.388,22.528c-4.489,2.057-9.651,2.057-14.14,0
	c3.831,8.61,13.918,12.493,22.528,8.661c8.61-3.831,12.493-13.918,8.661-22.528C474.743,219.674,471.654,216.585,467.797,214.869z"
	/>
<circle style="fill:#91CECE;" cx="426.667" cy="196.267" r="17.067"/>
<path style="fill:#83B2B7;" d="M433.664,180.736c3.908,8.533,0.145,18.62-8.388,22.528c-4.489,2.057-9.651,2.057-14.14,0
	c3.831,8.61,13.918,12.493,22.528,8.661c8.61-3.831,12.493-13.918,8.661-22.528C440.61,185.54,437.521,182.451,433.664,180.736z"/>
<circle style="fill:#91CECE;" cx="426.667" cy="264.533" r="17.067"/>
<path style="fill:#83B2B7;" d="M433.664,249.003c3.908,8.533,0.145,18.62-8.388,22.528c-4.489,2.057-9.651,2.057-14.14,0
	c3.831,8.61,13.918,12.493,22.528,8.661c8.61-3.831,12.493-13.918,8.661-22.528C440.61,253.807,437.521,250.718,433.664,249.003z"/>
<path style="fill:#383856;" d="M72.533,187.733h25.6c2.355,0,4.267,1.911,4.267,4.267v17.067c0,2.355,1.911,4.267,4.267,4.267
	h17.067c2.355,0,4.267,1.911,4.267,4.267v25.6c0,2.355-1.911,4.267-4.267,4.267h-17.067c-2.355,0-4.267,1.911-4.267,4.267V268.8
	c0,2.355-1.911,4.267-4.267,4.267h-25.6c-2.355,0-4.267-1.911-4.267-4.267v-17.067c0-2.355-1.911-4.267-4.267-4.267H46.933
	c-2.355,0-4.267-1.911-4.267-4.267v-25.6c0-2.355,1.911-4.267,4.267-4.267H64c2.355,0,4.267-1.911,4.267-4.267V192
	C68.267,189.645,70.178,187.733,72.533,187.733z"/>
<path style="fill:#202033;" d="M123.733,213.333h-7.296c-7.407,19.695-27.469,30.387-48.905,36.156
	c0.461,0.657,0.717,1.442,0.734,2.244V268.8c0,2.355,1.911,4.267,4.267,4.267h25.6c2.355,0,4.267-1.911,4.267-4.267v-17.067
	c0-2.355,1.911-4.267,4.267-4.267h17.067c2.355,0,4.267-1.911,4.267-4.267v-25.6C128,215.245,126.089,213.333,123.733,213.333z"/>
<circle style="fill:#EA3836;" cx="85.333" cy="332.8" r="17.067"/>
<path style="fill:#D62327;" d="M92.331,317.269c3.908,8.533,0.145,18.62-8.388,22.528c-4.489,2.057-9.651,2.057-14.14,0
	c3.831,8.61,13.918,12.493,22.528,8.661s12.493-13.918,8.661-22.528C99.277,322.074,96.188,318.985,92.331,317.269z"/>
<path style="fill:#91CECE;" d="M477.867,119.467h-59.733l6.921,27.665c0.947,3.797,4.361,6.468,8.277,6.468h70.135v-8.533
	C503.467,130.927,492.006,119.467,477.867,119.467z"/>
<path style="fill:#83B2B7;" d="M425.054,147.132c0.947,3.797,4.361,6.468,8.277,6.468h70.135v-8.533
	c-29.679,0.009-58.837-7.774-84.574-22.554L425.054,147.132z"/>
<path style="fill:#91CECE;" d="M86.946,147.132l6.921-27.665H34.133c-14.14,0-25.6,11.46-25.6,25.6v8.533h70.135
	C82.586,153.6,85.999,150.929,86.946,147.132z"/>
<path style="fill:#83B2B7;" d="M10.667,145.067c-0.717,0-1.408-0.094-2.125-0.111v8.644h70.135c3.917,0,7.33-2.671,8.277-6.468
	l6.912-27.665H80.708C61.124,136.013,36.309,145.084,10.667,145.067z"/>
<path d="M477.867,110.933H34.133C15.283,110.933,0,126.217,0,145.067v221.867c0,18.85,15.283,34.133,34.133,34.133h443.733
	c18.85,0,34.133-15.283,34.133-34.133V145.067C512,126.217,496.717,110.933,477.867,110.933z M494.933,145.067h-61.602L429.065,128
	h48.802C487.296,128,494.933,135.637,494.933,145.067z M34.133,128h48.802l-4.267,17.067H17.067
	C17.067,135.637,24.704,128,34.133,128z M477.867,384H34.133c-9.429,0-17.067-7.637-17.067-17.067v-204.8h61.602
	c7.834,0,14.669-5.333,16.563-12.937L100.531,128h310.938l5.299,21.197c1.894,7.603,8.73,12.937,16.563,12.937h61.602v204.8
	C494.933,376.363,487.296,384,477.867,384z"/>
<path d="M123.733,204.8h-12.8V192c0-7.066-5.734-12.8-12.8-12.8h-25.6c-7.066,0-12.8,5.734-12.8,12.8v12.8h-12.8
	c-7.066,0-12.8,5.734-12.8,12.8v25.6c0,7.066,5.734,12.8,12.8,12.8h12.8v12.8c0,7.066,5.734,12.8,12.8,12.8h25.6
	c7.066,0,12.8-5.734,12.8-12.8V256h12.8c7.066,0,12.8-5.734,12.8-12.8v-25.6C136.533,210.534,130.799,204.8,123.733,204.8z
	 M119.467,238.933h-12.8c-7.066,0-12.8,5.734-12.8,12.8v12.8H76.8v-12.8c0-7.066-5.734-12.8-12.8-12.8H51.2v-17.067H64
	c7.066,0,12.8-5.734,12.8-12.8v-12.8h17.067v12.8c0,7.066,5.734,12.8,12.8,12.8h12.8V238.933z"/>
<path d="M85.333,307.2c-14.14,0-25.6,11.46-25.6,25.6s11.46,25.6,25.6,25.6s25.6-11.46,25.6-25.6S99.473,307.2,85.333,307.2z
	 M85.333,341.333c-4.71,0-8.533-3.823-8.533-8.533s3.823-8.533,8.533-8.533c4.71,0,8.533,3.823,8.533,8.533
	S90.044,341.333,85.333,341.333z"/>
<path d="M153.6,366.933h204.8V145.067H153.6V366.933z M170.667,162.133h170.667v187.733H170.667V162.133z"/>
<g>
</g>
<g>
</g>
<g>
</g>
<g>
</g>
<g>
</g>
<g>
</g>
<g>
</g>
<g>
</g>
<g>
</g>
<g>
</g>
<g>
</g>
<g>
</g>
<g>
</g>
<g>
</g>
<g>
</g>
</svg>
